<svg xmlns="http://www.w3.org/2000/svg" width="216.48" height="35" viewBox="0 0 216.48 35"><rect class="svg__rect" x="0" y="0" width="117.03" height="35" fill="#A9001C"/><rect class="svg__rect" x="115.03" y="0" width="101.44999999999999" height="35" fill="#FF0503"/><path class="svg__text" d="M17.33 22L14.22 22L14.22 13.47L17.14 13.47Q18.59 13.47 19.34 14.05Q20.10 14.63 20.10 15.78L20.10 15.78Q20.10 16.36 19.78 16.83Q19.47 17.30 18.86 17.56L18.86 17.56Q19.55 17.75 19.93 18.26Q20.31 18.78 20.31 19.51L20.31 19.51Q20.31 20.71 19.53 21.36Q18.76 22 17.33 22L17.33 22ZM15.70 18.15L15.70 20.82L17.35 20.82Q18.04 20.82 18.44 20.47Q18.83 20.13 18.83 19.51L18.83 19.51Q18.83 18.18 17.47 18.15L17.47 18.15L15.70 18.15ZM15.70 14.66L15.70 17.06L17.15 17.06Q17.84 17.06 18.23 16.75Q18.62 16.43 18.62 15.86L18.62 15.86Q18.62 15.23 18.26 14.95Q17.90 14.66 17.14 14.66L17.14 14.66L15.70 14.66ZM24.64 19.16L24.64 19.16L24.64 13.47L26.12 13.47L26.12 19.18Q26.12 20.03 26.55 20.48Q26.98 20.93 27.83 20.93L27.83 20.93Q29.54 20.93 29.54 19.13L29.54 19.13L29.54 13.47L31.02 13.47L31.02 19.17Q31.02 20.53 30.15 21.32Q29.28 22.12 27.83 22.12L27.83 22.12Q26.36 22.12 25.50 21.33Q24.64 20.55 24.64 19.16ZM37.15 22L35.67 22L35.67 13.47L37.15 13.47L37.15 22ZM47.32 22L41.96 22L41.96 13.47L43.44 13.47L43.44 20.82L47.32 20.82L47.32 22ZM53.12 14.66L50.49 14.66L50.49 13.47L57.25 13.47L57.25 14.66L54.59 14.66L54.59 22L53.12 22L53.12 14.66ZM68.37 22L66.40 13.47L67.87 13.47L69.20 19.88L70.82 13.47L72.07 13.47L73.68 19.89L74.99 13.47L76.46 13.47L74.49 22L73.07 22L71.45 15.77L69.79 22L68.37 22ZM82.10 22L80.62 22L80.62 13.47L82.10 13.47L82.10 22ZM88.59 14.66L85.95 14.66L85.95 13.47L92.72 13.47L92.72 14.66L90.06 14.66L90.06 22L88.59 22L88.59 14.66ZM97.96 22L96.48 22L96.48 13.47L97.96 13.47L97.96 17.02L101.77 17.02L101.77 13.47L103.25 13.47L103.25 22L101.77 22L101.77 18.21L97.96 18.21L97.96 22Z" fill="#FFFFFF"/><path class="svg__text" d="M131.55 22L129.22 22L129.22 13.60L131.17 13.60L134.88 18.07L134.88 13.60L137.21 13.60L137.21 22L135.26 22L131.55 17.52L131.55 22ZM141.94 17.80L141.94 17.80Q141.94 16.55 142.55 15.55Q143.15 14.56 144.21 14.00Q145.28 13.43 146.61 13.43L146.61 13.43Q147.94 13.43 149.00 14.00Q150.07 14.56 150.67 15.55Q151.28 16.55 151.28 17.80L151.28 17.80Q151.28 19.05 150.67 20.04Q150.07 21.04 149.00 21.60Q147.94 22.17 146.61 22.17L146.61 22.17Q145.28 22.17 144.21 21.60Q143.15 21.04 142.55 20.04Q141.94 19.05 141.94 17.80ZM144.34 17.80L144.34 17.80Q144.34 18.51 144.64 19.05Q144.94 19.60 145.46 19.90Q145.98 20.20 146.61 20.20L146.61 20.20Q147.25 20.20 147.76 19.90Q148.28 19.60 148.58 19.05Q148.88 18.51 148.88 17.80L148.88 17.80Q148.88 17.09 148.58 16.54Q148.28 16 147.76 15.70Q147.25 15.40 146.61 15.40L146.61 15.40Q145.97 15.40 145.46 15.70Q144.94 16 144.64 16.54Q144.34 17.09 144.34 17.80ZM159.98 22L156.01 22L156.01 13.60L159.98 13.60Q161.36 13.60 162.43 14.12Q163.50 14.63 164.08 15.58Q164.67 16.53 164.67 17.80L164.67 17.80Q164.67 19.07 164.08 20.02Q163.50 20.97 162.43 21.48Q161.36 22 159.98 22L159.98 22ZM158.39 15.50L158.39 20.10L159.89 20.10Q160.96 20.10 161.62 19.49Q162.27 18.88 162.27 17.80L162.27 17.80Q162.27 16.72 161.62 16.11Q160.96 15.50 159.89 15.50L159.89 15.50L158.39 15.50ZM176.15 22L169.40 22L169.40 13.60L175.99 13.60L175.99 15.44L171.76 15.44L171.76 16.85L175.49 16.85L175.49 18.63L171.76 18.63L171.76 20.17L176.15 20.17L176.15 22ZM180.43 20.75L180.43 20.75Q180.43 20.15 180.82 19.78Q181.21 19.41 181.81 19.41L181.81 19.41Q182.40 19.41 182.79 19.78Q183.17 20.15 183.17 20.75L183.17 20.75Q183.17 21.34 182.78 21.72Q182.39 22.11 181.81 22.11L181.81 22.11Q181.23 22.11 180.83 21.72Q180.43 21.34 180.43 20.75ZM186.75 20.93L186.75 20.93L188.05 19.40Q188.71 20.27 189.49 20.27L189.49 20.27Q189.49 20.27 189.50 20.27L189.50 20.27Q190.01 20.27 190.28 19.96Q190.55 19.65 190.55 19.05L190.55 19.05L190.55 15.44L187.65 15.44L187.65 13.60L192.91 13.60L192.91 18.91Q192.91 20.54 192.09 21.36Q191.26 22.17 189.67 22.17L189.67 22.17Q188.74 22.17 187.99 21.85Q187.23 21.53 186.75 20.93ZM197.41 21.24L197.41 21.24L198.19 19.49Q198.75 19.86 199.50 20.09Q200.24 20.32 200.96 20.32L200.96 20.32Q202.33 20.32 202.33 19.64L202.33 19.64Q202.33 19.28 201.94 19.11Q201.55 18.93 200.68 18.74L200.68 18.74Q199.74 18.53 199.10 18.30Q198.46 18.06 198.01 17.55Q197.56 17.03 197.56 16.16L197.56 16.16Q197.56 15.39 197.97 14.77Q198.39 14.15 199.23 13.79Q200.06 13.43 201.27 13.43L201.27 13.43Q202.10 13.43 202.90 13.62Q203.71 13.80 204.32 14.17L204.32 14.17L203.59 15.93Q202.39 15.28 201.26 15.28L201.26 15.28Q200.55 15.28 200.23 15.49Q199.91 15.70 199.91 16.04L199.91 16.04Q199.91 16.37 200.29 16.54Q200.67 16.71 201.52 16.89L201.52 16.89Q202.48 17.10 203.11 17.33Q203.74 17.56 204.21 18.07Q204.67 18.58 204.67 19.46L204.67 19.46Q204.67 20.21 204.25 20.83Q203.83 21.44 202.99 21.80Q202.15 22.17 200.95 22.17L200.95 22.17Q199.93 22.17 198.97 21.92Q198.01 21.67 197.41 21.24Z" fill="#FFFFFF" x="128.03"/></svg>